<?xml version="1.0" encoding="UTF-8" standalone="no"?>
<svg
   xmlns:dc="http://purl.org/dc/elements/1.1/"
   xmlns:cc="http://creativecommons.org/ns#"
   xmlns:rdf="http://www.w3.org/1999/02/22-rdf-syntax-ns#"
   xmlns:svg="http://www.w3.org/2000/svg"
   xmlns="http://www.w3.org/2000/svg"
   xml:space="preserve"
   style="enable-background:new 0 0 382 382;"
   viewBox="0 0 382 382"
   y="0px"
   x="0px"
   id="Layer_1"
   version="1.1"><metadata
     id="metadata39"><rdf:RDF><cc:Work
         rdf:about=""><dc:format>image/svg+xml</dc:format><dc:type
           rdf:resource="http://purl.org/dc/dcmitype/StillImage" /></cc:Work></rdf:RDF></metadata><defs
     id="defs37" /><path
     id="path2"
     d="M347.445,0H34.555C15.471,0,0,15.471,0,34.555v312.889C0,366.529,15.471,382,34.555,382h312.889  C366.529,382,382,366.529,382,347.444V34.555C382,15.471,366.529,0,347.445,0z M118.207,329.844c0,5.554-4.502,10.056-10.056,10.056  H65.345c-5.554,0-10.056-4.502-10.056-10.056V150.403c0-5.554,4.502-10.056,10.056-10.056h42.806  c5.554,0,10.056,4.502,10.056,10.056V329.844z M86.748,123.432c-22.459,0-40.666-18.207-40.666-40.666S64.289,42.1,86.748,42.1  s40.666,18.207,40.666,40.666S109.208,123.432,86.748,123.432z M341.91,330.654c0,5.106-4.14,9.246-9.246,9.246H286.73  c-5.106,0-9.246-4.14-9.246-9.246v-84.168c0-12.556,3.683-55.021-32.813-55.021c-28.309,0-34.051,29.066-35.204,42.11v97.079  c0,5.106-4.139,9.246-9.246,9.246h-44.426c-5.106,0-9.246-4.14-9.246-9.246V149.593c0-5.106,4.14-9.246,9.246-9.246h44.426  c5.106,0,9.246,4.14,9.246,9.246v15.655c10.497-15.753,26.097-27.912,59.312-27.912c73.552,0,73.131,68.716,73.131,106.472  L341.91,330.654L341.91,330.654z"
     style="fill:#0077B7;" /><g
     id="g4" /><g
     id="g6" /><g
     id="g8" /><g
     id="g10" /><g
     id="g12" /><g
     id="g14" /><g
     id="g16" /><g
     id="g18" /><g
     id="g20" /><g
     id="g22" /><g
     id="g24" /><g
     id="g26" /><g
     id="g28" /><g
     id="g30" /><g
     id="g32" /></svg>